<?xml version="1.0" encoding="UTF-8" standalone="no"?>
<!-- Created with Inkscape (http://www.inkscape.org/) -->

<svg
   width="74.858002mm"
   height="23.483999mm"
   viewBox="0 0 74.858002 23.484035"
   version="1.1"
   id="svg5"
   inkscape:version="1.1.2 (0a00cf5339, 2022-02-04)"
   sodipodi:docname="logo.svg"
   xmlns:inkscape="http://www.inkscape.org/namespaces/inkscape"
   xmlns:sodipodi="http://sodipodi.sourceforge.net/DTD/sodipodi-0.dtd"
   xmlns="http://www.w3.org/2000/svg"
   xmlns:svg="http://www.w3.org/2000/svg">
  <sodipodi:namedview
     id="namedview7"
     pagecolor="#ffffff"
     bordercolor="#666666"
     borderopacity="1.0"
     inkscape:pageshadow="2"
     inkscape:pageopacity="0.0"
     inkscape:pagecheckerboard="0"
     inkscape:document-units="mm"
     showgrid="false"
     inkscape:zoom="1.0998546"
     inkscape:cx="-128.65337"
     inkscape:cy="343.68179"
     inkscape:window-width="3840"
     inkscape:window-height="2091"
     inkscape:window-x="0"
     inkscape:window-y="0"
     inkscape:window-maximized="1"
     inkscape:current-layer="g45"
     height="1009.1339px"
     units="mm" />
  <defs
     id="defs2" />
  <g
     inkscape:label="Layer 1"
     inkscape:groupmode="layer"
     id="layer1">
    <g
       id="g45"
       transform="matrix(0.26458333,0,0,0.26458333,52.652414,27.240754)">
      <path
         fill="#ea4335"
         d="m -70.323335,-56.247185 c 0,12.77 -9.99,22.18 -22.25,22.18 -12.259995,0 -22.249995,-9.41 -22.249995,-22.18 0,-12.86 9.99,-22.18 22.249995,-22.18 12.26,0 22.25,9.32 22.25,22.18 z m -9.74,0 c 0,-7.98 -5.79,-13.44 -12.51,-13.44 -6.72,0 -12.509995,5.46 -12.509995,13.44 0,7.9 5.789995,13.44 12.509995,13.44 6.72,0 12.51,-5.55 12.51,-13.44 z"
         id="path21" />
      <path
         fill="#fbbc05"
         d="m -22.323335,-56.247185 c 0,12.77 -9.99,22.18 -22.25,22.18 -12.26,0 -22.25,-9.41 -22.25,-22.18 0,-12.85 9.99,-22.18 22.25,-22.18 12.26,0 22.25,9.32 22.25,22.18 z m -9.74,0 c 0,-7.98 -5.79,-13.44 -12.51,-13.44 -6.72,0 -12.51,5.46 -12.51,13.44 0,7.9 5.79,13.44 12.51,13.44 6.72,0 12.51,-5.55 12.51,-13.44 z"
         id="path23" />
      <path
         fill="#4285f4"
         d="m 23.676665,-77.087185 v 39.82 c 0,16.38 -9.66,23.07 -21.0800007,23.07 -10.75,0 -17.2199993,-7.19 -19.6599993,-13.07 l 8.4799993,-3.53 c 1.51,3.61 5.21,7.87 11.17,7.87 7.3100004,0 11.8400007,-4.51 11.8400007,-13 v -3.19 h -0.34 c -2.18,2.69 -6.3800007,5.04 -11.6800007,5.04 -11.09,0 -21.2499993,-9.66 -21.2499993,-22.09 0,-12.52 10.1599993,-22.26 21.2499993,-22.26 5.29,0 9.4900007,2.35 11.6800007,4.96 h 0.34 v -3.61 h 9.25 z m -8.56,20.92 c 0,-7.81 -5.2100003,-13.52 -11.8400007,-13.52 -6.72,0 -12.35,5.71 -12.35,13.52 0,7.73 5.63,13.36 12.35,13.36 6.6300004,0 11.8400007,-5.63 11.8400007,-13.36 z"
         id="path25" />
      <path
         fill="#34a853"
         d="m 38.926665,-100.42718 v 64.999995 h -9.5 v -64.999995 z"
         id="path27" />
      <path
         fill="#ea4335"
         d="m 75.946665,-48.947185 7.56,5.04 c -2.44,3.61 -8.32,9.83 -18.48,9.83 -12.6,0 -22.01,-9.74 -22.01,-22.18 0,-13.19 9.49,-22.18 20.92,-22.18 11.51,0 17.14,9.16 18.98,14.11 l 1.01,2.52 -29.65,12.28 c 2.27,4.45 5.8,6.72 10.75,6.72 4.96,0 8.4,-2.44 10.92,-6.14 z m -23.27,-7.98 19.82,-8.23 c -1.09,-2.77 -4.37,-4.7 -8.23,-4.7 -4.95,0 -11.84,4.37 -11.59,12.93 z"
         id="path29" />
      <path
         fill="#4285f4"
         d="m -150.78333,-62.017185 v -9.41 h 31.71 c 0.31,1.64 0.47,3.58 0.47,5.68 0,7.06 -1.93,15.79 -8.15,22.01 -6.05,6.3 -13.78,9.66 -24.02,9.66 -18.98,0 -34.94,-15.46 -34.94,-34.44 0,-18.98 15.96,-34.439995 34.94,-34.439995 10.5,0 17.98,4.119995 23.6,9.489995 l -6.64,6.64 c -4.03,-3.78 -9.49,-6.72 -16.97,-6.72 -13.86,0 -24.7,11.17 -24.7,25.03 0,13.86 10.84,25.03 24.7,25.03 8.99,0 14.11,-3.61 17.39,-6.89 2.66,-2.66 4.41,-6.46 5.1,-11.65 z"
         id="path31" />
      <path
         fill="#34a853"
         d="m -189.50125,-102.85849 v 49.977336 h -9.5 v -49.977336 z"
         id="path27-3"
         style="fill:#340053;fill-opacity:1;stroke-width:0.876859" />
      <path
         fill="#34a853"
         d="m -189.49951,-43.551613 v 9.501732 h -9.50174 v -9.501732 z"
         id="path154"
         style="fill:#340053;fill-opacity:1;stroke-width:0.382371" />
    </g>
  </g>
</svg>
